<!-- Generated by IcoMoon.io -->
<svg version="1.1" xmlns="http://www.w3.org/2000/svg" width="512" height="512" viewBox="0 0 512 512">
<title></title>
<g id="icomoon-ignore">
</g>
<path fill="#FF9426" d="M256 499.2c-134.315 0-243.2-108.885-243.2-243.2s108.885-243.2 243.2-243.2c134.315 0 243.2 108.885 243.2 243.2s-108.885 243.2-243.2 243.2zM256 473.6c120.177 0 217.6-97.423 217.6-217.6s-97.423-217.6-217.6-217.6c-120.177 0-217.6 97.423-217.6 217.6s97.423 217.6 217.6 217.6zM256 390.4c-15.906 0-28.8-12.894-28.8-28.8s12.894-28.8 28.8-28.8c15.906 0 28.8 12.894 28.8 28.8s-12.894 28.8-28.8 28.8zM230.4 139.071c0-13.183 11.462-23.87 25.6-23.87s25.6 10.687 25.6 23.87v128.9c0 13.183-11.462 23.87-25.6 23.87s-25.6-10.687-25.6-23.87v-128.899z"></path>
</svg>
