<svg xmlns="http://www.w3.org/2000/svg" width="311" height="30" viewBox="0 0 311 30"><g fill="none"><path fill="#E5E5E5" d="M1.5 4v22A2.5 2.5 0 0 0 4 28.5h303a2.5 2.5 0 0 0 2.5-2.5V4a2.5 2.5 0 0 0-2.5-2.5H4A2.5 2.5 0 0 0 1.5 4zm-1 0A3.5 3.5 0 0 1 4 .5h303a3.5 3.5 0 0 1 3.5 3.5v22a3.5 3.5 0 0 1-3.5 3.5H4A3.5 3.5 0 0 1 .5 26V4z"/><path fill="#F8F8F8" d="M2 4v22a2 2 0 0 0 2 2h303a2 2 0 0 0 2-2V4a2 2 0 0 0-2-2H4a2 2 0 0 0-2 2z"/><path fill="#3AB75F" d="M42.38 13.035c.6-.738 1.382-1.106 2.344-1.106 1.675 0 2.52.945 2.534 2.834V20h-1.355v-5.244c-.005-.571-.136-.994-.392-1.267-.256-.274-.655-.41-1.197-.41-.44 0-.826.117-1.158.351-.332.235-.59.542-.776.923V20h-1.355V8.75h1.355v4.285zm8.745-2.879v1.92h1.48v1.047h-1.48v4.914c0 .317.066.556.198.714.132.159.356.238.674.238.156 0 .37-.029.644-.088V20a3.928 3.928 0 0 1-1.04.146c-.605 0-1.062-.183-1.37-.549-.307-.366-.46-.886-.46-1.56v-4.914h-1.444v-1.048h1.443v-1.919h1.355zm4.9 0v1.92h1.48v1.047h-1.48v4.914c0 .317.066.556.198.714.132.159.356.238.674.238.156 0 .37-.029.644-.088V20a3.928 3.928 0 0 1-1.04.146c-.605 0-1.062-.183-1.37-.549-.307-.366-.461-.886-.461-1.56v-4.914h-1.443v-1.048h1.443v-1.919h1.355zm9.756 5.97c0 1.206-.276 2.177-.828 2.915-.552.737-1.299 1.105-2.241 1.105-.962 0-1.719-.305-2.27-.915v3.816h-1.355V12.075h1.237l.066.88c.552-.684 1.319-1.026 2.3-1.026.952 0 1.705.359 2.26 1.076.554.718.83 1.717.83 2.996v.124zm-1.355-.154c0-.894-.19-1.6-.571-2.117-.381-.518-.904-.776-1.568-.776-.82 0-1.435.363-1.845 1.09v3.788c.405.722 1.025 1.084 1.86 1.084.65 0 1.166-.258 1.549-.773s.575-1.28.575-2.296zm7.69 1.926c0-.366-.138-.65-.414-.853-.275-.203-.756-.378-1.442-.524-.686-.146-1.23-.322-1.634-.527-.403-.205-.7-.45-.893-.733a1.752 1.752 0 0 1-.29-1.01c0-.65.275-1.2.824-1.648.55-.45 1.252-.674 2.106-.674.899 0 1.627.232 2.186.696.56.463.839 1.057.839 1.78h-1.362c0-.372-.158-.692-.473-.96-.315-.269-.711-.403-1.19-.403-.493 0-.879.107-1.157.322a1.014 1.014 0 0 0-.418.843c0 .327.13.573.389.74.258.165.726.324 1.402.475.676.152 1.225.332 1.644.542.42.21.732.463.934.758.203.296.304.656.304 1.08 0 .709-.283 1.276-.85 1.704-.566.427-1.3.64-2.204.64-.635 0-1.196-.112-1.684-.336a2.74 2.74 0 0 1-1.147-.942 2.268 2.268 0 0 1-.414-1.307h1.355c.025.454.207.814.546 1.08.34.266.787.4 1.344.4.513 0 .924-.104 1.234-.312.31-.207.465-.484.465-.831z"/><path fill="#BABABA" d="M75.192 19.29c0-.235.07-.43.21-.586.138-.157.347-.235.625-.235.279 0 .49.078.634.235a.831.831 0 0 1 .216.586.786.786 0 0 1-.216.564c-.144.15-.355.227-.634.227-.278 0-.487-.076-.626-.227a.802.802 0 0 1-.209-.564zm.008-6.468c0-.234.07-.43.209-.586.139-.156.347-.234.626-.234.278 0 .49.078.633.234a.831.831 0 0 1 .216.586.786.786 0 0 1-.216.564c-.144.152-.355.227-.633.227-.279 0-.487-.075-.626-.227a.802.802 0 0 1-.21-.564zm3.94 8.094h-1.164l4.453-11.58h1.157l-4.446 11.58zm6.182 0h-1.165l4.453-11.58h1.158l-4.446 11.58z"/><path fill="#444" d="M96.125 20c-.078-.156-.142-.435-.19-.835-.63.654-1.382.981-2.256.981-.781 0-1.422-.22-1.923-.662-.5-.442-.75-1.003-.75-1.681 0-.825.313-1.466.94-1.923.628-.456 1.51-.685 2.648-.685h1.319v-.622c0-.474-.142-.851-.425-1.132-.283-.28-.7-.421-1.253-.421-.483 0-.888.122-1.215.366-.328.244-.491.54-.491.886h-1.362c0-.395.14-.777.42-1.146.282-.368.662-.66 1.143-.875a3.844 3.844 0 0 1 1.586-.322c.913 0 1.628.228 2.146.685.518.456.786 1.085.806 1.886v3.647c0 .728.092 1.306.278 1.736V20h-1.42zm-2.248-1.033c.424 0 .827-.11 1.208-.33.38-.219.657-.505.828-.856v-1.626H94.85c-1.66 0-2.49.486-2.49 1.457 0 .425.141.757.424.996.283.24.647.36 1.092.36zm8.693.074c.484 0 .906-.147 1.268-.44.36-.293.561-.66.6-1.099h1.282c-.025.455-.18.887-.469 1.297-.288.41-.673.737-1.153.981-.481.244-.99.366-1.528.366-1.079 0-1.937-.36-2.574-1.08-.637-.72-.956-1.705-.956-2.955v-.227c0-.772.142-1.458.425-2.058.283-.6.69-1.067 1.22-1.4.53-.331 1.155-.497 1.878-.497.889 0 1.627.266 2.216.798.588.532.902 1.223.94 2.073h-1.28c-.04-.513-.234-.934-.583-1.264-.35-.33-.78-.494-1.293-.494-.688 0-1.222.248-1.6.743-.379.496-.568 1.213-.568 2.15v.256c0 .913.188 1.617.564 2.11.376.493.913.74 1.611.74zm7.852 0c.483 0 .906-.147 1.267-.44.361-.293.562-.66.6-1.099h1.282c-.024.455-.18.887-.468 1.297-.288.41-.673.737-1.154.981-.48.244-.99.366-1.527.366-1.08 0-1.937-.36-2.574-1.08-.638-.72-.956-1.705-.956-2.955v-.227c0-.772.141-1.458.425-2.058.283-.6.69-1.067 1.219-1.4.53-.331 1.156-.497 1.879-.497.888 0 1.627.266 2.215.798.589.532.902 1.223.941 2.073h-1.281c-.04-.513-.234-.934-.583-1.264-.349-.33-.78-.494-1.292-.494-.689 0-1.222.248-1.6.743-.38.496-.568 1.213-.568 2.15v.256c0 .913.188 1.617.564 2.11.376.493.913.74 1.611.74zm4.314-3.077c0-.776.153-1.474.458-2.094.305-.62.73-1.099 1.274-1.436.545-.337 1.166-.505 1.864-.505 1.08 0 1.952.373 2.619 1.12.666.747 1 1.741 1 2.981v.095c0 .772-.148 1.464-.444 2.077a3.365 3.365 0 0 1-1.267 1.432c-.55.342-1.18.512-1.893.512-1.074 0-1.945-.373-2.611-1.12-.667-.747-1-1.736-1-2.966v-.096zm1.362.161c0 .88.204 1.585.612 2.117.408.532.953.799 1.637.799.688 0 1.235-.27 1.64-.81.406-.54.608-1.295.608-2.267 0-.869-.206-1.573-.619-2.113-.412-.54-.96-.809-1.644-.809-.669 0-1.208.266-1.619.798-.41.533-.615 1.294-.615 2.285zm12.444 3.091c-.527.62-1.301.93-2.322.93-.844 0-1.488-.245-1.93-.736-.442-.49-.665-1.217-.67-2.179v-5.156h1.355v5.12c0 1.201.488 1.802 1.465 1.802 1.035 0 1.724-.386 2.065-1.158v-5.764h1.355V20h-1.289l-.029-.784zm4.658-7.14l.044.995c.606-.761 1.397-1.142 2.373-1.142 1.675 0 2.52.945 2.534 2.834V20h-1.355v-5.244c-.004-.571-.135-.994-.391-1.267-.257-.274-.656-.41-1.198-.41-.44 0-.825.117-1.157.351-.332.235-.59.542-.776.923V20h-1.355v-7.925h1.281zm8.833-1.92v1.92h1.48v1.047h-1.48v4.914c0 .317.066.556.198.714.132.159.356.238.674.238.156 0 .371-.029.644-.088V20a3.928 3.928 0 0 1-1.04.146c-.605 0-1.062-.183-1.37-.549-.307-.366-.46-.886-.46-1.56v-4.914h-1.444v-1.048h1.443v-1.919h1.355zm3.091 9.134c0-.235.07-.43.209-.586.139-.157.348-.235.626-.235s.49.078.634.235a.831.831 0 0 1 .216.586.786.786 0 0 1-.216.564c-.144.15-.356.227-.634.227s-.487-.076-.626-.227a.802.802 0 0 1-.209-.564zm10.628-3.165c0 1.211-.279 2.184-.835 2.92-.557.734-1.304 1.101-2.242 1.101-1 0-1.775-.354-2.321-1.062l-.066.916h-1.245V8.75h1.355v4.197c.546-.679 1.3-1.018 2.263-1.018.962 0 1.717.363 2.267 1.091.549.728.824 1.724.824 2.988v.117zm-1.355-.153c0-.923-.179-1.636-.535-2.139-.357-.503-.87-.754-1.538-.754-.894 0-1.536.415-1.926 1.245v3.427c.415.83 1.062 1.246 1.94 1.246.65 0 1.155-.252 1.517-.755.36-.503.542-1.26.542-2.27zM158.93 20h-1.355v-7.925h1.355V20zm-1.465-10.027c0-.22.068-.405.202-.556.134-.152.333-.228.597-.228.263 0 .464.076.6.228a.8.8 0 0 1 .205.556c0 .22-.068.403-.205.55-.136.146-.337.22-.6.22-.264 0-.463-.074-.597-.22a.782.782 0 0 1-.202-.55zm5.472.183v1.92h1.48v1.047h-1.48v4.914c0 .317.066.556.197.714.132.159.357.238.674.238.156 0 .371-.029.645-.088V20a3.928 3.928 0 0 1-1.04.146c-.606 0-1.062-.183-1.37-.549-.308-.366-.461-.886-.461-1.56v-4.914h-1.443v-1.048h1.443v-1.919h1.355zm9.755 5.97c0 1.206-.275 2.177-.827 2.915-.552.737-1.299 1.105-2.241 1.105-.962 0-1.72-.305-2.27-.915v3.816h-1.356V12.075h1.238l.066.88c.552-.684 1.318-1.026 2.3-1.026.952 0 1.705.359 2.26 1.076.553.718.83 1.717.83 2.996v.124zm-1.355-.154c0-.894-.19-1.6-.57-2.117-.382-.518-.904-.776-1.568-.776-.82 0-1.436.363-1.846 1.09v3.788c.405.722 1.026 1.084 1.86 1.084.65 0 1.166-.258 1.55-.773.383-.515.575-1.28.575-2.296zm7.97 4.028c-.079-.156-.142-.435-.191-.835-.63.654-1.382.981-2.256.981-.781 0-1.422-.22-1.923-.662-.5-.442-.75-1.003-.75-1.681 0-.825.313-1.466.94-1.923.628-.456 1.51-.685 2.648-.685h1.319v-.622c0-.474-.142-.851-.425-1.132-.283-.28-.7-.421-1.252-.421-.484 0-.89.122-1.216.366-.327.244-.49.54-.49.886h-1.363c0-.395.14-.777.42-1.146.282-.368.663-.66 1.143-.875a3.844 3.844 0 0 1 1.586-.322c.913 0 1.629.228 2.146.685.518.456.786 1.085.806 1.886v3.647c0 .728.093 1.306.278 1.736V20h-1.42zm-2.25-1.033c.426 0 .828-.11 1.21-.33.38-.219.656-.505.827-.856v-1.626h-1.062c-1.66 0-2.49.486-2.49 1.457 0 .425.141.757.424.996.284.24.647.36 1.092.36zm6.798-6.892l.044.996c.605-.761 1.396-1.142 2.373-1.142 1.674 0 2.52.945 2.534 2.834V20h-1.355v-5.244c-.005-.571-.136-.994-.392-1.267-.256-.274-.656-.41-1.198-.41-.439 0-.825.117-1.157.351-.332.235-.59.542-.776.923V20h-1.355v-7.925h1.282zm6.665 3.897c0-1.216.288-2.194.864-2.934.576-.74 1.33-1.11 2.263-1.11.928 0 1.663.318 2.205.953V8.75h1.355V20h-1.245l-.066-.85c-.542.664-1.297.996-2.264.996-.918 0-1.666-.375-2.244-1.127-.58-.752-.868-1.734-.868-2.945v-.102zm1.355.153c0 .899.185 1.602.556 2.11.371.508.884.762 1.538.762.86 0 1.487-.386 1.883-1.158V14.2c-.406-.747-1.028-1.12-1.868-1.12-.664 0-1.182.256-1.553.769-.37.512-.556 1.272-.556 2.277zM204.2 20c-.078-.156-.141-.435-.19-.835-.63.654-1.382.981-2.256.981-.781 0-1.422-.22-1.923-.662-.5-.442-.75-1.003-.75-1.681 0-.825.313-1.466.94-1.923.628-.456 1.51-.685 2.649-.685h1.318v-.622c0-.474-.142-.851-.425-1.132-.283-.28-.7-.421-1.252-.421-.484 0-.889.122-1.216.366-.327.244-.49.54-.49.886h-1.363c0-.395.14-.777.42-1.146.282-.368.663-.66 1.143-.875a3.844 3.844 0 0 1 1.586-.322c.913 0 1.629.228 2.146.685.518.456.786 1.085.806 1.886v3.647c0 .728.093 1.306.278 1.736V20h-1.42zm-2.248-1.033c.425 0 .827-.11 1.208-.33.381-.219.657-.505.828-.856v-1.626h-1.062c-1.66 0-2.49.486-2.49 1.457 0 .425.141.757.424.996.284.24.647.36 1.092.36zm5.544.323c0-.235.07-.43.209-.586.14-.157.348-.235.626-.235s.49.078.634.235a.831.831 0 0 1 .216.586.786.786 0 0 1-.216.564c-.144.15-.356.227-.634.227s-.487-.076-.626-.227a.802.802 0 0 1-.209-.564zm7.097-.25c.484 0 .906-.146 1.267-.439.362-.293.562-.66.601-1.099h1.282c-.025.455-.18.887-.469 1.297-.288.41-.673.737-1.154.981-.48.244-.99.366-1.527.366-1.079 0-1.937-.36-2.574-1.08-.637-.72-.956-1.705-.956-2.955v-.227c0-.772.142-1.458.425-2.058.283-.6.69-1.067 1.22-1.4.53-.331 1.155-.497 1.878-.497.889 0 1.627.266 2.216.798.588.532.902 1.223.94 2.073h-1.281c-.04-.513-.233-.934-.582-1.264-.35-.33-.78-.494-1.293-.494-.688 0-1.222.248-1.6.743-.379.496-.568 1.213-.568 2.15v.256c0 .913.188 1.617.564 2.11.376.493.913.74 1.611.74zm4.314-3.076c0-.776.153-1.474.458-2.094.305-.62.73-1.099 1.274-1.436.545-.337 1.166-.505 1.864-.505 1.08 0 1.952.373 2.619 1.12.666.747 1 1.741 1 2.981v.095c0 .772-.148 1.464-.443 2.077a3.365 3.365 0 0 1-1.268 1.432c-.549.342-1.18.512-1.893.512-1.074 0-1.944-.373-2.61-1.12-.667-.747-1-1.736-1-2.966v-.096zm1.363.161c0 .88.203 1.585.611 2.117s.954.799 1.637.799c.689 0 1.235-.27 1.64-.81.406-.54.609-1.295.609-2.267 0-.869-.207-1.573-.62-2.113-.412-.54-.96-.809-1.644-.809-.668 0-1.208.266-1.618.798-.41.533-.615 1.294-.615 2.285zm8.825-4.05l.037.88c.581-.684 1.365-1.026 2.351-1.026 1.108 0 1.863.425 2.263 1.274.264-.38.607-.688 1.03-.923.422-.234.92-.351 1.497-.351 1.738 0 2.622.92 2.651 2.76V20h-1.355v-5.23c0-.566-.129-.99-.388-1.27-.259-.281-.693-.421-1.303-.421-.503 0-.92.15-1.253.45-.332.3-.525.704-.579 1.212V20h-1.362v-5.193c0-1.152-.564-1.728-1.692-1.728-.888 0-1.496.378-1.823 1.135V20h-1.355v-7.925h1.281z"/><path fill="#BABABA" d="M241.24 20.916h-1.165l4.453-11.58h1.158l-4.446 11.58zm5.97-1.626c0-.235.069-.43.208-.586.139-.157.348-.235.626-.235s.49.078.634.235a.831.831 0 0 1 .216.586.786.786 0 0 1-.216.564c-.144.15-.356.227-.634.227s-.487-.076-.626-.227a.802.802 0 0 1-.209-.564zm3.2 0c0-.235.07-.43.209-.586.139-.157.347-.235.626-.235.278 0 .49.078.633.235a.831.831 0 0 1 .216.586.786.786 0 0 1-.216.564c-.144.15-.355.227-.633.227-.279 0-.487-.076-.626-.227a.802.802 0 0 1-.21-.564zm3.04 0c0-.235.069-.43.208-.586.14-.157.348-.235.626-.235.279 0 .49.078.634.235a.831.831 0 0 1 .216.586.786.786 0 0 1-.216.564c-.144.15-.355.227-.634.227-.278 0-.487-.076-.626-.227a.802.802 0 0 1-.209-.564z"/><path fill="#3CCF68" d="M14.813 12.2h4.367c.004-.42.008-.885.008-1.09 0-1.045-.97-1.91-2.188-1.91-1.218 0-2.188.865-2.188 1.91v1.09zm5.617.024c.89.14 1.57.882 1.57 1.776v4.2c0 .994-.84 1.8-1.875 1.8h-6.25C12.839 20 12 19.194 12 18.2V14c0-.892.676-1.632 1.563-1.775V11.11C13.563 9.382 15.11 8 17 8c1.889 0 3.438 1.382 3.438 3.11a192.382 192.382 0 0 1-.008 1.114z"/><path fill="#C6C6C6" d="M30 8.5a.5.5 0 1 1 1 0v13a.5.5 0 1 1-1 0v-13z"/></g></svg>